<?xml version="1.0" encoding="utf-8"?>
<!-- Generator: Adobe Illustrator 19.2.1, SVG Export Plug-In . SVG Version: 6.00 Build 0)  -->
<svg version="1.1" id="layer" xmlns="http://www.w3.org/2000/svg" xmlns:xlink="http://www.w3.org/1999/xlink" x="0px" y="0px"
	 viewBox="0 0 652 652" style="enable-background:new 0 0 652 652;" xml:space="preserve">
<style type="text/css">
	.st0{fill:#C10202;}
</style>
<g>
	<g>
		<path class="st0" d="M563,241.9v3.6c33.5,5.2,30,13.1,11,62L548,375l-35.2-92.1c-5.7-15-15.9-34.1,15.2-37.4v-3.6l-156.1,0h-60.1
			v3.5c24.9,4.7,30.6,11.2,30.8,33.5l1.1,85.4L234.9,241.9h-100v3.5c30.8,3,33,16.6,33,46.3v24.6c0,28.5,4.6,76.7-42.9,76.7
			c-60.3,0-53.3-60.4-53.3-64.8v-48c0-25.7,0.4-30.4,29.3-34.9v-3.5H25.1v3.5c26.4,3.7,26.6,10.8,27.3,34.9v52.4
			c0,18.7-7,71.1,61.2,71.1c48.9,0,61-30.7,61.6-60.8l1.3-51.2c0.9-30.8,2.2-43.9,22.1-46.3c27.9,6.6,31.4,15.7,31.4,39.1v35.1
			c0,53.1,1.1,74.6-28.6,77.9v3.5h65.8v-3.5c-31.9-6.8-30.6-18.7-30.6-76.7v-43.1c37.2,42.6,76.4,83.5,111.6,127.7l2.9-0.7
			c-1.1-51-2.2-107.4,0.9-133.1c1.8-15.1,4.6-24,19.6-26.2c26.1,3.8,26.4,10.8,27,34.8v82.4c-0.7,24.1-0.9,31.1-27.3,34.9v3.5h123.1
			l12.5-43.5l-2.9-1.4c-16.9,29.9-22.5,40.9-55.9,38.4l-26.9-2.1c-3.3-11.2-3.3-23.6-3.3-35.3v-76.7c0-24.1,0.9-31.1,27.3-34.9v-0.1
			c4.5-0.6,7.9-0.7,12.9,0.1v0.1c19.6,2.4,24.7,17.6,31.3,35.1l49.8,129h3.1l42.1-108.8c13.7-34.6,20-53.4,40.7-55.3v-3.6H563"/>
	</g>
</g>
</svg>
